<svg width="16" height="16" viewBox="0 0 16 16" fill="none" xmlns="http://www.w3.org/2000/svg">
  <g clip-path="url(#clip0_4441_3094)">
    <path
      d="M14.1119 5.33331C13.0832 2.97877 10.7337 1.33331 7.99996 1.33331C4.54306 1.33331 1.70069 3.96443 1.36621 7.33331"
      stroke="currentColor" stroke-width="1.5" stroke-linecap="round" stroke-linejoin="round" />
    <path d="M12 5.33335H14.0667C14.398 5.33335 14.6667 5.06472 14.6667 4.73335V2.66669" stroke="currentColor"
      stroke-width="1.5" stroke-linecap="round" stroke-linejoin="round" />
    <path
      d="M1.9213 10.6667C2.95004 13.0212 5.29948 14.6667 8.03324 14.6667C11.4901 14.6667 14.3325 12.0356 14.667 8.66669"
      stroke="currentColor" stroke-width="1.5" stroke-linecap="round" stroke-linejoin="round" />
    <path d="M4.0332 10.6666H1.96654C1.63517 10.6666 1.36654 10.9353 1.36654 11.2666V13.3333" stroke="currentColor"
      stroke-width="1.5" stroke-linecap="round" stroke-linejoin="round" />
    <path
      d="M9.66634 9.99998C9.85044 9.99998 9.99967 9.85074 9.99967 9.66665C9.99967 9.48255 9.85044 9.33331 9.66634 9.33331C9.48225 9.33331 9.33301 9.48255 9.33301 9.66665C9.33301 9.85074 9.48225 9.99998 9.66634 9.99998Z"
      fill="currentColor" stroke="currentColor" stroke-width="1.5" stroke-linecap="round" stroke-linejoin="round" />
    <path
      d="M6.33333 6.66667C6.51743 6.66667 6.66667 6.51743 6.66667 6.33333C6.66667 6.14924 6.51743 6 6.33333 6C6.14924 6 6 6.14924 6 6.33333C6 6.51743 6.14924 6.66667 6.33333 6.66667Z"
      fill="currentColor" stroke="currentColor" stroke-width="1.5" stroke-linecap="round" stroke-linejoin="round" />
    <path d="M10 6L6 10" stroke="currentColor" stroke-width="1.5" stroke-linecap="round" stroke-linejoin="round" />
  </g>
  <defs>
    <clipPath id="clip0_4441_3094">
      <rect width="16" height="16" fill="white" />
    </clipPath>
  </defs>
</svg>