<svg width="24" height="24" viewBox="0 0 24 24" fill="none" xmlns="http://www.w3.org/2000/svg">
<g clip-path="url(#clip0_1700_3272)">
<path d="M17.6744 11.4068L15.7691 17.1227C15.7072 17.3084 15.5586 17.4522 15.3709 17.508L3.69348 20.9797C3.22819 21.118 2.79978 20.6754 2.95328 20.2148L6.74467 8.8407C6.79981 8.67527 6.92419 8.54202 7.08543 8.47563L12.472 6.25761C12.696 6.16539 12.9535 6.21688 13.1248 6.38815L17.5294 10.7928C17.6901 10.9535 17.7463 11.1912 17.6744 11.4068Z" stroke="#6A6C6C" stroke-linecap="square"/>
<path d="M3.29597 20.6016L9.65993 14.2376" stroke="#6A6C6C" stroke-linecap="square"/>
<path d="M17.7917 11.0566L20.6201 8.22821C21.4011 7.44716 21.4011 6.18084 20.6201 5.39979L18.4988 3.27847C17.7177 2.49742 16.4514 2.49742 15.6703 3.27847L12.8419 6.10689" stroke="#6A6C6C" stroke-linecap="square"/>
<path d="M11.7813 12.1168C11.1955 11.5311 10.2457 11.5311 9.65994 12.1168C9.07415 12.7026 9.07415 13.6524 9.65994 14.2382C10.2457 14.824 11.1955 14.824 11.7813 14.2382C12.367 13.6524 12.367 12.7026 11.7813 12.1168Z" stroke="#6A6C6C" stroke-linecap="square"/>
</g>
<defs>
<clipPath id="clip0_1700_3272">
<rect width="24" height="24" fill="white"/>
</clipPath>
</defs>
</svg>
