<svg width="24" height="25" viewBox="0 0 24 25" fill="none" xmlns="http://www.w3.org/2000/svg">
<path d="M17.5714 18.5H20.4C20.7314 18.5 21 18.2314 21 17.9V11.5C21 9.29086 19.2091 7.5 17 7.5H7C4.79086 7.5 3 9.29086 3 11.5V17.9C3 18.2314 3.26863 18.5 3.6 18.5H6.42857" stroke="#6A6C6C" stroke-linecap="square"/>
<path d="M8 7.5V4.1C8 3.76863 8.26863 3.5 8.6 3.5H15.4C15.7314 3.5 16 3.76863 16 4.1V7.5" stroke="#6A6C6C" stroke-linecap="square"/>
<path d="M6.09782 20.8151L6.42855 18.5L6.92639 15.0151C6.96862 14.7196 7.22177 14.5 7.52036 14.5H16.4796C16.7782 14.5 17.0313 14.7196 17.0736 15.0151L17.5714 18.5L17.9021 20.8151C17.9538 21.1766 17.6733 21.5 17.3082 21.5H6.69179C6.32666 21.5 6.04618 21.1766 6.09782 20.8151Z" stroke="#6A6C6C" stroke-linecap="square"/>
<path d="M17 10.51L17.01 10.4989" stroke="#6A6C6C" stroke-linecap="square"/>
</svg>
