<svg width="24" height="24" viewBox="0 0 24 24" fill="none" xmlns="http://www.w3.org/2000/svg">
<g clip-path="url(#clip0_1700_1590)">
<path d="M17.6744 11.4078L15.7691 17.1236C15.7072 17.3094 15.5586 17.4532 15.3709 17.509L3.69348 20.9807C3.22819 21.119 2.79978 20.6763 2.95328 20.2158L6.74467 8.84167C6.79981 8.67625 6.92419 8.543 7.08543 8.4766L12.472 6.25859C12.696 6.16636 12.9535 6.21785 13.1248 6.38913L17.5294 10.7938C17.6901 10.9545 17.7463 11.1922 17.6744 11.4078Z" stroke="#6A6C6C" stroke-linecap="square"/>
<path d="M3.2959 20.6016L9.65986 14.2376" stroke="#6A6C6C" stroke-linecap="square"/>
<path d="M17.7917 11.0557L20.6202 8.22724C21.4012 7.44619 21.4012 6.17986 20.6202 5.39881L18.4989 3.27749C17.7178 2.49644 16.4515 2.49644 15.6704 3.27749L12.842 6.10592" stroke="#6A6C6C" stroke-linecap="square"/>
<path d="M11.7814 12.1159C11.1956 11.5301 10.2458 11.5301 9.66004 12.1159C9.07426 12.7017 9.07426 13.6514 9.66004 14.2372C10.2458 14.823 11.1956 14.823 11.7814 14.2372C12.3671 13.6514 12.3671 12.7017 11.7814 12.1159Z" stroke="#6A6C6C" stroke-linecap="square"/>
</g>
<defs>
<clipPath id="clip0_1700_1590">
<rect width="24" height="24" fill="white"/>
</clipPath>
</defs>
</svg>
