<svg width="24" height="25" viewBox="0 0 24 25" fill="none" xmlns="http://www.w3.org/2000/svg">
<path d="M14 15.5L15.5 17" stroke="#6A6C6C" stroke-linecap="square"/>
<path d="M8.5 13C8.5 14.6569 9.84315 16 11.5 16C12.3299 16 13.081 15.663 13.6241 15.1185C14.1654 14.5758 14.5 13.827 14.5 13C14.5 11.3431 13.1569 10 11.5 10C9.84315 10 8.5 11.3431 8.5 13Z" stroke="#6A6C6C" stroke-linecap="square"/>
<path d="M4 21.9V3.1C4 2.76863 4.26863 2.5 4.6 2.5H16.2515C16.4106 2.5 16.5632 2.56321 16.6757 2.67574L19.8243 5.82426C19.9368 5.93679 20 6.0894 20 6.24853V21.9C20 22.2314 19.7314 22.5 19.4 22.5H4.6C4.26863 22.5 4 22.2314 4 21.9Z" stroke="#6A6C6C" stroke-linecap="square"/>
<path d="M16 2.5V5.9C16 6.23137 16.2686 6.5 16.6 6.5H20" stroke="#6A6C6C" stroke-linecap="square"/>
</svg>
