<svg width="24" height="25" viewBox="0 0 24 25" fill="none" xmlns="http://www.w3.org/2000/svg">
<path d="M3 20.9V4.1C3 3.76863 3.26863 3.5 3.6 3.5H20.4C20.7314 3.5 21 3.76863 21 4.1V20.9C21 21.2314 20.7314 21.5 20.4 21.5H3.6C3.26863 21.5 3 21.2314 3 20.9Z" stroke="#6A6C6C" stroke-linecap="square"/>
<path d="M15 9C14.315 8.31501 13.1087 7.83855 12 7.80872M9 15.5C9.64448 16.3593 10.8428 16.8494 12 16.891M12 7.80872C10.6809 7.77322 9.5 8.36998 9.5 10C9.5 13 15 11.5 15 14.5C15 16.211 13.5362 16.9462 12 16.891M12 7.80872V6M12 16.891V19" stroke="#6A6C6C" stroke-linecap="square"/>
</svg>
