<svg width="82" height="20" viewBox="0 0 82 20" fill="none" xmlns="http://www.w3.org/2000/svg">
<path fill-rule="evenodd" clip-rule="evenodd" d="M15.378 18.9996V9.64976H12.9996V8.11195H15.378V6.70743C15.378 6.22216 15.4327 5.77791 15.5421 5.37466C15.6583 4.96458 15.8223 4.60234 16.0342 4.28794C16.2529 3.97355 16.516 3.70699 16.8236 3.48828C17.1311 3.26957 17.4797 3.10554 17.8693 2.99618C18.2657 2.87999 18.6963 2.8219 19.161 2.8219C19.4959 2.8219 19.7625 2.8424 19.9607 2.88341C20.1589 2.92442 20.2922 2.96201 20.3605 2.99618V4.53399C20.2785 4.50665 20.1418 4.4759 19.9505 4.44172C19.7591 4.40755 19.554 4.39046 19.3353 4.39046C18.8706 4.39046 18.4912 4.46223 18.1974 4.60576C17.9103 4.74928 17.6882 4.94749 17.531 5.20037C17.3738 5.44642 17.2644 5.72665 17.2029 6.04104C17.1482 6.35544 17.1209 6.6835 17.1209 7.02524V8.11195H20.299V9.64976H17.1209V18.9996H15.378ZM63.9551 18.9996V9.64976H61.5766V8.11195H63.9551V6.70743C63.9551 6.22216 64.0098 5.77791 64.1192 5.37466C64.2353 4.96458 64.3994 4.60234 64.6112 4.28794C64.83 3.97355 65.0931 3.70699 65.4007 3.48828C65.7082 3.26957 66.0568 3.10554 66.4464 2.99618C66.8428 2.87999 67.2734 2.8219 67.7381 2.8219C68.073 2.8219 68.3396 2.8424 68.5378 2.88341C68.736 2.92442 68.8693 2.96201 68.9376 2.99618V4.53399C68.8556 4.50665 68.7189 4.4759 68.5275 4.44172C68.3362 4.40755 68.1311 4.39046 67.9124 4.39046C67.4477 4.39046 67.0683 4.46223 66.7744 4.60576C66.4874 4.74928 66.2652 4.94749 66.108 5.20037C65.9508 5.44642 65.8415 5.72665 65.78 6.04104C65.7253 6.35544 65.698 6.6835 65.698 7.02524V8.11195H68.8761V9.64976H65.698V18.9996H63.9551ZM72.084 15.719C71.8615 15.2885 71.7178 14.7998 71.6527 14.2529H80.8393C80.8529 14.1914 80.8632 14.0718 80.87 13.8941C80.8769 13.7164 80.8803 13.5729 80.8803 13.4635C80.8803 12.4041 80.6616 11.461 80.2242 10.634C79.7867 9.80013 79.1648 9.14399 78.3583 8.66557C77.5518 8.18714 76.5983 7.94792 75.498 7.94792C74.4181 7.94792 73.4578 8.18714 72.6171 8.66557C71.7765 9.14399 71.1169 9.80696 70.6385 10.6545C70.1601 11.4951 69.9208 12.4725 69.9208 13.5865C69.9208 14.6869 70.1566 15.6609 70.6282 16.5084C71.1067 17.3559 71.7628 18.0188 72.5966 18.4973C73.4305 18.9757 74.3941 19.2149 75.4877 19.2149C76.3147 19.2149 77.046 19.109 77.6816 18.8971C78.3173 18.6852 78.8538 18.405 79.2912 18.0564C79.7286 17.701 80.067 17.308 80.3062 16.8775C80.5454 16.4469 80.6821 16.0129 80.7162 15.5754H78.9734C78.9461 15.8147 78.8606 16.0539 78.7171 16.2931C78.5736 16.5323 78.3617 16.7544 78.0815 16.9595C77.8081 17.1577 77.4595 17.3183 77.0358 17.4413C76.612 17.5575 76.1131 17.6156 75.539 17.6156C74.7325 17.6156 74.0353 17.4516 73.4475 17.1235C72.8598 16.7954 72.4053 16.3273 72.084 15.719ZM79.0049 12.6946H71.6767C71.7524 12.2201 71.895 11.7929 72.1045 11.4131C72.4326 10.8117 72.8905 10.3469 73.4783 10.0188C74.0661 9.69077 74.7461 9.52674 75.5185 9.52674C76.284 9.52674 76.9264 9.68394 77.4458 9.99833C77.9653 10.3127 78.3549 10.7331 78.6146 11.2593C78.84 11.6987 78.9701 12.1771 79.0049 12.6946ZM57.6487 8.11195V18.9996H59.371V8.11195H57.6487ZM57.6794 5.3439C57.9186 5.5216 58.1989 5.61046 58.5201 5.61046C58.8413 5.61046 59.1181 5.5216 59.3505 5.3439C59.5829 5.15937 59.6991 4.9099 59.6991 4.5955C59.6991 4.28794 59.5829 4.04531 59.3505 3.86761C59.1181 3.68307 58.8413 3.5908 58.5201 3.5908C58.1989 3.5908 57.9186 3.68307 57.6794 3.86761C57.447 4.04531 57.3309 4.28794 57.3309 4.5955C57.3309 4.9099 57.447 5.15937 57.6794 5.3439ZM54.3563 2.97568V18.9996H52.634V2.97568H54.3563ZM44.2305 8.11195V18.9996H45.9733V13.0432C45.9733 12.6536 46.0178 12.2606 46.1066 11.8642C46.1955 11.4678 46.3458 11.1021 46.5577 10.7672C46.7764 10.4255 47.0703 10.1521 47.4394 9.94707C47.8153 9.74203 48.2869 9.63951 48.8542 9.63951C49.2369 9.63951 49.5308 9.6771 49.7358 9.75228C49.9477 9.82746 50.0878 9.88898 50.1562 9.93682L50.6073 8.22473C50.5389 8.18372 50.3646 8.12904 50.0844 8.06069C49.811 7.98551 49.4556 7.94792 49.0182 7.94792C48.4304 7.94792 47.9178 8.04361 47.4804 8.23498C47.043 8.41952 46.6773 8.6724 46.3834 8.99363C46.2289 9.16286 46.0922 9.34398 45.9733 9.53698V8.11195H44.2305ZM32.7178 15.719C32.4953 15.2885 32.3515 14.7998 32.2865 14.2529H41.473C41.4867 14.1914 41.4969 14.0718 41.5038 13.8941C41.5106 13.7164 41.514 13.5729 41.514 13.4635C41.514 12.4041 41.2953 11.461 40.8579 10.634C40.4205 9.80013 39.7985 9.14399 38.992 8.66557C38.1855 8.18714 37.2321 7.94792 36.1317 7.94792C35.0518 7.94792 34.0915 8.18714 33.2509 8.66557C32.4102 9.14399 31.7507 9.80696 31.2722 10.6545C30.7938 11.4951 30.5546 12.4725 30.5546 13.5865C30.5546 14.6869 30.7904 15.6609 31.262 16.5084C31.7404 17.3559 32.3965 18.0188 33.2304 18.4973C34.0642 18.9757 35.0279 19.2149 36.1215 19.2149C36.9485 19.2149 37.6798 19.109 38.3154 18.8971C38.951 18.6852 39.4875 18.405 39.925 18.0564C40.3624 17.701 40.7007 17.308 40.9399 16.8775C41.1791 16.4469 41.3158 16.0129 41.35 15.5754H39.6072C39.5798 15.8147 39.4944 16.0539 39.3509 16.2931C39.2073 16.5323 38.9954 16.7544 38.7152 16.9595C38.4418 17.1577 38.0933 17.3183 37.6695 17.4413C37.2458 17.5575 36.7468 17.6156 36.1727 17.6156C35.3662 17.6156 34.6691 17.4516 34.0813 17.1235C33.4935 16.7954 33.039 16.3273 32.7178 15.719ZM39.6386 12.6946H32.3104C32.3861 12.2201 32.5287 11.7929 32.7383 11.4131C33.0663 10.8117 33.5243 10.3469 34.1121 10.0188C34.6998 9.69077 35.3799 9.52674 36.1522 9.52674C36.9177 9.52674 37.5602 9.68394 38.0796 9.99833C38.599 10.3127 38.9886 10.7331 39.2483 11.2593C39.4738 11.6987 39.6039 12.1771 39.6386 12.6946ZM25.6464 19.0509C25.9677 19.1261 26.2957 19.1637 26.6306 19.1637C26.8903 19.1637 27.1227 19.1432 27.3278 19.1021C27.5396 19.068 27.7037 19.0304 27.8199 18.9894V17.4721C27.731 17.5062 27.5977 17.5404 27.42 17.5746C27.2423 17.6088 27.0544 17.6259 26.8562 17.6259C26.3641 17.6259 26.0463 17.4618 25.9027 17.1338C25.766 16.8057 25.6977 16.3512 25.6977 15.7702V15.3704V14.9296V9.64976H29.1014V8.11195H25.6977V4.50324H23.9446V6.97398C23.9446 7.24737 23.9378 7.46266 23.9241 7.61986C23.9104 7.77022 23.8728 7.88299 23.8113 7.95817C23.7566 8.02652 23.6644 8.07095 23.5345 8.09145C23.4046 8.10512 23.2235 8.11195 22.9911 8.11195H21.2893V9.64976H23.9446V15.4934V15.9855V16.4264C23.9446 16.9936 24.0198 17.4584 24.1701 17.8206C24.3205 18.176 24.5221 18.4529 24.775 18.6511C25.0347 18.8424 25.3252 18.9757 25.6464 19.0509ZM3.17042 18.8151C3.79238 19.0748 4.51686 19.2047 5.34386 19.2047C6.06833 19.2047 6.71763 19.1261 7.29175 18.9689C7.86586 18.8117 8.35454 18.593 8.75779 18.3127C9.02524 18.13 9.25053 17.9283 9.43367 17.7078C9.43705 17.7387 9.44072 17.7695 9.44467 17.8001C9.47201 18.0052 9.5096 18.176 9.55745 18.3127C9.61896 18.4836 9.68389 18.634 9.75224 18.7638C9.82058 18.8869 9.87184 18.9655 9.90602 18.9996H11.6591C11.6113 18.9518 11.5498 18.8663 11.4746 18.7433C11.3994 18.6135 11.3311 18.446 11.2695 18.241C11.2217 18.0701 11.1875 17.8719 11.167 17.6464C11.1465 17.4208 11.1363 17.1884 11.1363 16.9492V12.3666V11.9462V11.5156C11.1363 10.7365 10.9244 10.0838 10.5006 9.55749C10.2042 9.17841 9.83168 8.86672 9.38316 8.62241V11.4439V11.4541C9.38316 11.7548 9.09952 11.9736 8.53224 12.1103C7.96496 12.2401 7.01152 12.3734 5.67192 12.5101C4.78341 12.5989 4.00426 12.7766 3.33446 13.0432C2.66465 13.3097 2.14522 13.6822 1.77614 14.1607C1.40707 14.6323 1.22253 15.2235 1.22253 15.9343C1.22253 16.6177 1.3934 17.2055 1.73514 17.6976C2.07687 18.1829 2.5553 18.5554 3.17042 18.8151ZM7.52754 17.3183C6.96026 17.5302 6.32464 17.6361 5.62066 17.6361C4.71848 17.6361 4.0521 17.4857 3.62151 17.185C3.19093 16.8774 2.97563 16.4264 2.97563 15.8317C2.97563 15.203 3.23535 14.7553 3.75479 14.4887C4.28106 14.2222 5.06022 14.0411 6.09226 13.9454C6.80306 13.877 7.48312 13.7916 8.13241 13.6891C8.6064 13.6101 9.02331 13.515 9.38316 13.4039V14.7758C9.38316 15.4046 9.21571 15.9308 8.88081 16.3546C8.54591 16.7783 8.09482 17.0996 7.52754 17.3183Z" fill="#285857"/>
<path fill-rule="evenodd" clip-rule="evenodd" d="M13.7876 0.94104C13.7449 2.52015 13.692 4.48 10.6514 6.77353C9.96926 7.2881 9.26458 8.21446 9.34964 8.59387C9.35774 8.60379 9.3654 8.61343 9.37263 8.62277C9.35608 8.61511 9.3393 8.60766 9.3223 8.60043C9.31812 8.5987 9.31384 8.5969 9.30947 8.59504C8.36002 8.20051 6.71131 8.49063 5.23114 10.0655C3.71759 11.6759 1.44995 10.7574 1.44995 10.7574L1.45515 10.7309C1.71868 10.257 1.89684 9.76038 2.06937 9.27946C2.45206 8.2127 2.80704 7.22318 4.00452 6.73052C5.67051 6.04511 7.64082 7.13819 8.69749 7.98137C8.16286 7.05035 7.22602 4.90988 8.66283 3.18526C9.47129 2.21633 10.5637 2.02123 11.5545 1.84426C12.512 1.67324 13.3747 1.51917 13.7945 0.700012C13.7919 0.77934 13.7898 0.859685 13.7876 0.94104Z" fill="#285857"/>
</svg>
