<svg width="16" height="16" viewBox="0 0 16 16" fill="none" xmlns="http://www.w3.org/2000/svg">
<path d="M2 4.33325L8 6.99992M14 4.33325L8 6.99992M8 14.3333V6.99992" stroke="#285857" stroke-width="1.5" stroke-linecap="round" stroke-linejoin="round"/>
<path d="M2 11.2768V4.72334C2 4.48623 2.13964 4.27135 2.35632 4.17505L7.75632 1.77505C7.91146 1.7061 8.08854 1.7061 8.24368 1.77505L13.6437 4.17505C13.8604 4.27135 14 4.48623 14 4.72334V11.2768C14 11.5139 13.8604 11.7288 13.6437 11.8251L8.24368 14.2251C8.08854 14.2941 7.91146 14.2941 7.75632 14.2251L2.35632 11.8251C2.13964 11.7288 2 11.5139 2 11.2768Z" stroke="#285857" stroke-width="1.5" stroke-linecap="round" stroke-linejoin="round"/>
<path d="M5 3L10.6437 5.5083C10.8604 5.6046 11 5.81948 11 6.05659V8.33333" stroke="#285857" stroke-width="1.5" stroke-linecap="round" stroke-linejoin="round"/>
</svg>
