<svg width="16" height="16" viewBox="0 0 16 16" fill="none" xmlns="http://www.w3.org/2000/svg">
<path d="M2 13.4V2.6C2 2.26863 2.26863 2 2.6 2H13.4C13.7314 2 14 2.26863 14 2.6V13.4C14 13.7314 13.7314 14 13.4 14H2.6C2.26863 14 2 13.7314 2 13.4Z" stroke="#285857" stroke-width="1.5" stroke-linecap="round" stroke-linejoin="round"/>
<path d="M10 5.66675C9.54334 5.21009 8.73912 4.89245 8 4.87256M6 10.0001C6.42965 10.573 7.22851 10.8997 8 10.9274M8 4.87256C7.12058 4.8489 6.33333 5.24674 6.33333 6.33342C6.33333 8.33342 10 7.33342 10 9.33342C10 10.4741 9.02412 10.9642 8 10.9274M8 4.87256V3.66675M8 10.9274V12.3334" stroke="#285857" stroke-width="1.5" stroke-linecap="round" stroke-linejoin="round"/>
</svg>
