<svg width="16" height="17" viewBox="0 0 16 17" fill="none" xmlns="http://www.w3.org/2000/svg">
<rect x="0.666748" y="13.166" width="9.33333" height="14.6667" rx="1" transform="rotate(-90 0.666748 13.166)" stroke="#6A6C6C"/>
<path d="M8.66675 5.83398H13.6667" stroke="#6A6C6C"/>
<path d="M8.66675 7.16602H13.6667" stroke="#6A6C6C"/>
<path d="M8.66675 8.5H11.3334" stroke="#6A6C6C"/>
<path d="M2.66675 11.1667V10.8333C2.66675 9.54467 3.71142 8.5 5.00008 8.5V8.5C6.28875 8.5 7.33342 9.54467 7.33342 10.8333V11.1667" stroke="#6A6C6C" stroke-linecap="square"/>
<path d="M5.00008 8.50065C5.73646 8.50065 6.33341 7.9037 6.33341 7.16732C6.33341 6.43094 5.73646 5.83398 5.00008 5.83398C4.2637 5.83398 3.66675 6.43094 3.66675 7.16732C3.66675 7.9037 4.2637 8.50065 5.00008 8.50065Z" stroke="#6A6C6C" stroke-linecap="square"/>
</svg>
