<svg width="16" height="16" viewBox="0 0 16 16" fill="none" xmlns="http://www.w3.org/2000/svg">
<path d="M2 4.33398L8 7.00065M14 4.33398L8 7.00065M8 14.334V7.00065" stroke="#285857" stroke-linecap="square"/>
<path d="M2 11.2761V4.72261C2 4.48549 2.13964 4.27062 2.35632 4.17432L7.75632 1.77432C7.91146 1.70537 8.08854 1.70537 8.24368 1.77432L13.6437 4.17432C13.8604 4.27062 14 4.48549 14 4.72261V11.2761C14 11.5132 13.8604 11.7281 13.6437 11.8244L8.24368 14.2244C8.08854 14.2933 7.91146 14.2933 7.75632 14.2244L2.35632 11.8244C2.13964 11.7281 2 11.5132 2 11.2761Z" stroke="#285857" stroke-linecap="square"/>
<path d="M5 3L10.6437 5.5083C10.8604 5.6046 11 5.81948 11 6.05659V8.33333" stroke="#285857" stroke-linecap="square"/>
</svg>
