<svg width="16" height="16" viewBox="0 0 16 16" fill="none" xmlns="http://www.w3.org/2000/svg">
<path d="M2 13.4V2.6C2 2.26863 2.26863 2 2.6 2H13.4C13.7314 2 14 2.26863 14 2.6V13.4C14 13.7314 13.7314 14 13.4 14H2.6C2.26863 14 2 13.7314 2 13.4Z" stroke="#285857" stroke-linecap="square"/>
<path d="M10 5.66601C9.54334 5.20935 8.73912 4.89172 8 4.87183M6 9.99935C6.42965 10.5722 7.22851 10.899 8 10.9267M8 4.87183C7.12058 4.84816 6.33333 5.246 6.33333 6.33269C6.33333 8.33268 10 7.33269 10 9.33268C10 10.4734 9.02412 10.9635 8 10.9267M8 4.87183V3.66602M8 10.9267V12.3327" stroke="#285857" stroke-linecap="square"/>
</svg>
