<svg width="60" height="60" viewBox="0 0 60 60" fill="none" xmlns="http://www.w3.org/2000/svg">
<g clip-path="url(#clip0_3800_3812)">
<circle cx="30" cy="30" r="30" fill="#E0F3EF"/>
<path d="M44.7893 26.7926C44.8924 25.9257 44.78 25.046 44.4626 24.2358C42.7711 19.3218 38.1292 19.6833 36.9148 19.8689C36.6333 19.2634 35.697 17.9753 32.6923 17.2134C29.4658 16.3952 27.8386 18.1435 27.3244 18.8561C25.6368 18.1091 23.7779 17.8681 21.9626 18.1609C19.004 18.5954 18.0277 21.4205 17.8038 22.2491C16.7781 22.5021 12.557 23.8299 13.038 28.4776C13.2877 30.8884 14.153 32.677 15.609 33.7941C16.7838 34.6473 18.1935 35.0921 19.6319 35.0635C19.9079 35.0643 20.1837 35.049 20.458 35.0176C20.5441 35.3695 20.6678 35.7106 20.8267 36.0346C22.5648 39.6063 27.0511 38.8625 28.2967 38.5789C28.5517 39.2198 29.3893 40.535 32.0638 41.2114C32.7014 41.3727 33.3556 41.4544 34.0123 41.4547C34.9176 41.4654 35.8155 41.2861 36.6509 40.9278C37.8312 41.5683 39.1341 41.9343 40.4674 41.9997C40.9461 42.0056 41.4222 41.9275 41.8754 41.7689C42.3527 41.5907 42.7854 41.3054 43.142 40.9339C43.4986 40.5623 43.7701 40.1138 43.9369 39.6209C44.1829 38.9947 44.3362 38.3341 44.3915 37.6613H44.4057C44.6256 37.6613 47.0538 37.5632 47.8846 33.3444C48.6194 29.6351 45.6371 27.3564 44.7893 26.7926ZM47.225 33.2088C46.4936 36.9223 44.5038 36.9689 44.4125 36.9689H44.4091C44.3804 36.0756 44.1184 35.2067 43.6507 34.4531C43.1014 33.6451 42.3735 32.9824 41.5268 32.5192C40.68 32.0561 39.7385 31.8057 38.7794 31.7886C38.7347 31.7848 38.6897 31.7905 38.6472 31.8053C38.6047 31.8201 38.5656 31.8437 38.5324 31.8746C38.4991 31.9056 38.4724 31.9433 38.4539 31.9853C38.4354 32.0273 38.4256 32.0727 38.4249 32.1188C38.4203 32.2108 38.4514 32.3009 38.5114 32.3693C38.5714 32.4378 38.6554 32.4789 38.7449 32.4838C39.5962 32.4955 40.4328 32.7141 41.1861 33.1217C41.9394 33.5294 42.588 34.1145 43.079 34.8292C43.4773 35.5078 43.7067 36.2768 43.7468 37.0682C43.787 37.8596 43.6366 38.649 43.309 39.3665C43.1761 39.7659 42.9585 40.1299 42.672 40.4324C42.3854 40.7349 42.0371 40.9682 41.6521 41.1155C40.186 41.6486 38.3004 40.9417 37.3823 40.5176C37.6218 40.352 37.838 40.1534 38.025 39.9274C38.3152 39.5707 38.4959 39.1334 38.5441 38.6711C38.5922 38.2088 38.5058 37.7422 38.2956 37.3304C38.2566 37.2493 38.1883 37.1871 38.1052 37.1569C38.0222 37.1268 37.931 37.1311 37.8511 37.1689C37.7711 37.2068 37.7086 37.2751 37.6769 37.3595C37.6452 37.4439 37.6468 37.5377 37.6813 37.6209C37.8395 37.9132 37.9074 38.2481 37.876 38.5809C37.8445 38.9138 37.7153 39.229 37.5054 39.4846C37.2485 39.7892 36.9326 40.0355 36.5778 40.2076C36.5718 40.2076 36.5663 40.2132 36.5603 40.2152C35.1911 40.8169 33.6655 40.9307 32.2262 40.5385C29.1654 39.7648 28.8711 38.1798 28.8609 38.1173C28.8541 38.0679 28.8371 38.0207 28.8109 37.9787C28.7848 37.9367 28.7501 37.901 28.7094 37.874C28.6683 37.8474 28.6223 37.83 28.5743 37.8228C28.5263 37.8156 28.4773 37.8189 28.4306 37.8323C28.3785 37.8483 23.1967 39.3484 21.4336 35.726C21.0838 35.158 20.9407 34.4813 21.0295 33.8154C21.1182 33.1495 21.4332 32.5373 21.9187 32.0868C22.9274 31.1025 24.5018 30.7431 24.9977 31.0302C25.0412 31.0555 25.0897 31.0706 25.1395 31.0744C25.1894 31.0782 25.2394 31.0705 25.2861 31.0521C25.3327 31.0336 25.3748 31.0047 25.4093 30.9675C25.4438 30.9303 25.4698 30.8857 25.4855 30.837C25.6497 30.3655 25.9034 29.9322 26.2318 29.5623C26.5603 29.1924 26.957 28.8932 27.3989 28.682C28.3291 28.3268 29.4509 28.543 30.731 29.3257C30.8081 29.3729 30.9004 29.3867 30.9874 29.364C31.0744 29.3413 31.1491 29.284 31.1951 29.2048C31.241 29.1255 31.2544 29.0307 31.2323 28.9413C31.2103 28.8518 31.1545 28.7751 31.0774 28.7279C29.6106 27.8304 28.2912 27.5969 27.1573 28.0327C26.1731 28.4661 25.3902 29.274 24.9727 30.2871C24.3298 30.2321 23.6828 30.3196 23.0757 30.5436C22.4685 30.7676 21.9152 31.123 21.4532 31.5856C21.0833 31.9309 20.7927 32.3563 20.6025 32.831C20.4122 33.3058 20.327 33.8181 20.3531 34.3308C18.8246 34.5104 17.284 34.1218 16.0102 33.2352C14.7132 32.2384 13.9399 30.6138 13.7099 28.4067C13.2363 23.8014 17.935 22.9234 18.136 22.8879C18.204 22.876 18.2668 22.8429 18.3161 22.7932C18.3653 22.7435 18.3985 22.6795 18.4113 22.6099C18.437 22.4708 19.0825 19.2857 22.0574 18.8498C23.8298 18.5533 25.648 18.8165 27.2717 19.6047C27.311 19.6276 27.3543 19.6422 27.3992 19.6476C27.4441 19.653 27.4896 19.6491 27.533 19.6361C27.5763 19.6232 27.6168 19.6014 27.6518 19.5722C27.6869 19.5429 27.7159 19.5067 27.7371 19.4657C27.7953 19.3677 29.0747 17.0139 32.5313 17.8912C35.9879 18.7685 36.3634 20.3166 36.3654 20.3242C36.3736 20.3704 36.3908 20.4145 36.4161 20.4537C36.4413 20.4929 36.474 20.5264 36.5122 20.5522C36.5507 20.5778 36.5937 20.5952 36.6387 20.6036C36.6838 20.6119 36.73 20.611 36.7747 20.6009C36.9906 20.5494 42.0885 19.4143 43.8252 24.4687C44.4389 26.2538 44.2048 27.5107 43.1487 28.1036C41.782 28.8725 39.5256 28.3184 38.776 27.3279C37.523 25.6727 38.2293 24.6599 38.2578 24.6209C38.2852 24.585 38.3054 24.5439 38.3174 24.4999C38.3293 24.456 38.3327 24.41 38.3274 24.3647C38.322 24.3194 38.3081 24.2756 38.2862 24.2358C38.2644 24.1961 38.2352 24.1611 38.2003 24.1329C38.1653 24.1048 38.1253 24.084 38.0825 24.0717C38.0397 24.0594 37.995 24.0559 37.9509 24.0614C37.9068 24.0669 37.8641 24.0813 37.8254 24.1037C37.7867 24.1261 37.7527 24.1561 37.7253 24.192C37.68 24.2511 36.6496 25.6518 38.2415 27.7547C39.1535 28.9594 41.8003 29.6531 43.4734 28.714C43.9658 28.441 44.3567 28.0087 44.5857 27.4843C45.4903 28.1252 47.8346 30.1119 47.225 33.2088ZM31.145 23.3745C30.9908 23.7024 30.7668 23.9905 30.4896 24.2175C30.2124 24.4444 29.8891 24.6044 29.5436 24.6856C29.5004 24.6997 29.455 24.7047 29.4099 24.7005C29.3649 24.6962 29.3211 24.6827 29.2812 24.6607C29.2413 24.6387 29.2061 24.6088 29.1777 24.5726C29.1493 24.5364 29.1283 24.4947 29.1158 24.45C29.1034 24.4053 29.0998 24.3585 29.1052 24.3123C29.1107 24.2661 29.1252 24.2216 29.1477 24.1813C29.1702 24.1409 29.2004 24.1057 29.2365 24.0776C29.2725 24.0494 29.3137 24.029 29.3575 24.0175C29.63 23.9574 29.8839 23.8295 30.0971 23.645C30.3102 23.4605 30.4761 23.2252 30.5801 22.9595C30.6768 22.5956 30.6892 22.2136 30.6165 21.8439C30.5438 21.4741 30.3879 21.127 30.1613 20.8303C30.1127 20.7545 30.095 20.6621 30.1118 20.573C30.1286 20.4839 30.1787 20.4051 30.2513 20.3535C30.324 20.3018 30.4134 20.2814 30.5005 20.2966C30.5876 20.3118 30.6654 20.3614 30.7174 20.4347C31.1862 21.0902 31.403 21.9004 31.3263 22.71C32.2674 22.9373 34.6307 23.9272 34.7619 28.1579C34.7647 28.2499 34.7317 28.3394 34.6703 28.4065C34.6089 28.4736 34.5241 28.513 34.4345 28.5159H34.4237C34.3358 28.5159 34.2513 28.4808 34.1882 28.418C34.1251 28.3552 34.0882 28.2697 34.0854 28.1794C33.9622 24.2866 31.8642 23.5219 31.145 23.3745ZM35.7836 35.7413C35.806 35.8305 35.793 35.9252 35.7474 36.0046C35.7019 36.084 35.6275 36.1415 35.5407 36.1646C35.5129 36.1726 35.4842 36.1765 35.4554 36.1764C35.3804 36.1764 35.3076 36.1508 35.2483 36.1036C35.189 36.0564 35.1467 35.9903 35.128 35.9157C35.0526 35.4718 34.8806 35.0512 34.6247 34.6852C34.3688 34.3193 34.0357 34.0175 33.6503 33.8025C32.7211 33.4613 31.701 33.4916 30.7925 33.8873C30.8038 34.6595 30.5592 35.4128 30.099 36.0235C30.0749 36.0631 30.0433 36.0973 30.006 36.124C29.9687 36.1508 29.9266 36.1695 29.8821 36.1792C29.8376 36.1888 29.7916 36.1891 29.747 36.1801C29.7024 36.1711 29.66 36.1529 29.6224 36.1267C29.5848 36.1005 29.5527 36.0667 29.528 36.0275C29.5034 35.9882 29.4867 35.9442 29.4789 35.8982C29.4712 35.8522 29.4726 35.805 29.483 35.7595C29.4934 35.714 29.5126 35.6712 29.5395 35.6335C29.7743 35.3572 29.9428 35.0282 30.0315 34.6729C30.1202 34.3177 30.1266 33.946 30.0503 33.5877C29.9309 33.324 29.7597 33.0885 29.5476 32.8959C29.3355 32.7034 29.087 32.5578 28.8176 32.4685C28.7751 32.4548 28.7357 32.4326 28.7016 32.4033C28.6674 32.3739 28.6393 32.338 28.6187 32.2974C28.5981 32.2569 28.5854 32.2126 28.5815 32.167C28.5775 32.1215 28.5824 32.0756 28.5957 32.0319C28.609 31.9883 28.6306 31.9478 28.6592 31.9127C28.6877 31.8776 28.7227 31.8487 28.7622 31.8275C28.8016 31.8063 28.8448 31.7934 28.8891 31.7893C28.9334 31.7853 28.9781 31.7902 29.0206 31.8039C29.7115 32.0424 30.286 32.546 30.6241 33.2095C31.6842 32.7639 32.8698 32.7505 33.9392 33.172C34.4161 33.4286 34.8299 33.7932 35.1494 34.2383C35.469 34.6834 35.6858 35.1974 35.7836 35.7413ZM25.1513 25.1055C25.1221 25.1601 25.0791 25.2056 25.0268 25.2373C24.9745 25.269 24.915 25.2856 24.8543 25.2855C24.7975 25.2854 24.7417 25.2705 24.6919 25.2424C24.34 25.072 24.0265 24.828 23.7716 24.526C23.5167 24.224 23.326 23.8706 23.2116 23.4885C22.1577 23.5942 21.1748 24.0818 20.439 24.8641C19.7031 25.6465 19.2623 26.6724 19.1955 27.7581C19.8466 27.9313 20.4399 28.2822 20.9126 28.7738C20.9459 28.8046 20.973 28.8419 20.9922 28.8835C21.0114 28.9251 21.0223 28.9702 21.0244 29.0163C21.0264 29.0623 21.0196 29.1082 21.0042 29.1515C20.9888 29.1948 20.9652 29.2345 20.9348 29.2683C20.9043 29.3021 20.8677 29.3293 20.8269 29.3485C20.7861 29.3676 20.742 29.3782 20.6972 29.3796C20.6524 29.3811 20.6077 29.3734 20.5659 29.357C20.524 29.3406 20.4857 29.3158 20.4532 29.284C20.2176 28.9943 19.9187 28.7658 19.581 28.6171C19.2432 28.4685 18.8761 28.4037 18.5094 28.4283C18.2424 28.5166 17.9962 28.6612 17.7866 28.8526C17.5769 29.0441 17.4083 29.2784 17.2916 29.5405C17.2553 29.6249 17.1878 29.6909 17.1041 29.7242C17.0203 29.7574 16.9272 29.7551 16.8451 29.7178C16.763 29.6804 16.6987 29.6111 16.6663 29.5251C16.634 29.439 16.6362 29.3433 16.6726 29.259C16.8321 28.896 17.0663 28.5728 17.3592 28.3118C17.652 28.0508 17.9964 27.8581 18.3687 27.747C18.4195 27.7359 18.4716 27.7338 18.523 27.7269C18.6454 26.6647 19.3457 23.2306 23.1365 22.7976C23.1822 22.1681 23.399 21.5645 23.7623 21.0555C23.8187 20.9865 23.899 20.9427 23.9862 20.9333C24.0735 20.9239 24.1608 20.9497 24.2299 21.0053C24.299 21.0608 24.3443 21.1418 24.3564 21.231C24.3685 21.3203 24.3464 21.4109 24.2948 21.4837C23.9294 21.9848 23.7652 22.6109 23.8361 23.2327C23.921 23.5416 24.0713 23.8274 24.2762 24.0696C24.4811 24.3119 24.7356 24.5046 25.0214 24.6341C25.0989 24.6792 25.1559 24.7537 25.1802 24.8417C25.2046 24.9297 25.1942 25.0239 25.1513 25.1041V25.1055Z" fill="#285857" stroke="#285857" stroke-width="0.6"/>
</g>
<defs>
<clipPath id="clip0_3800_3812">
<rect width="60" height="60" fill="white"/>
</clipPath>
</defs>
</svg>
