<svg width="60" height="60" viewBox="0 0 60 60" fill="none" xmlns="http://www.w3.org/2000/svg">
<g clip-path="url(#clip0_3800_3824)">
<path d="M50.7556 30.1159C50.3839 26.3049 47.8025 23.472 44.9482 22.11C46.1094 21.6205 47.0792 20.7688 47.7113 19.6833C48.3434 18.5978 48.6036 17.3373 48.4526 16.0919C48.3017 14.8465 47.7478 13.6836 46.8744 12.7787C46.001 11.8737 44.8555 11.2756 43.6105 11.0747C42.3656 10.8738 41.0888 11.0808 39.9725 11.6646C38.8562 12.2484 37.9609 13.1774 37.4218 14.3114C36.8826 15.4455 36.7287 16.7231 36.9832 17.9517C37.2378 19.1803 37.887 20.2934 38.833 21.123C37.5495 21.2026 36.2797 21.4312 35.0494 21.804C35.2639 21.0171 35.2932 20.1916 35.135 19.3917C34.9769 18.5917 34.6355 17.8388 34.1375 17.1912C33.6394 16.5437 32.9981 16.019 32.2632 15.6579C31.5283 15.2968 30.7197 15.1089 29.9 15.1089C29.0803 15.1089 28.2717 15.2968 27.5368 15.6579C26.8019 16.019 26.1605 16.5437 25.6625 17.1912C25.1645 17.8388 24.8231 18.5917 24.665 19.3917C24.5068 20.1916 24.5361 21.0171 24.7506 21.804C23.5202 21.4316 22.2505 21.2031 20.967 21.123C21.9106 20.294 22.5579 19.1824 22.8112 17.9557C23.0645 16.729 22.9102 15.4537 22.3714 14.3218C21.8327 13.19 20.9387 12.263 19.8242 11.6804C18.7097 11.0978 17.435 10.8912 16.1922 11.0918C14.9495 11.2924 13.8059 11.8893 12.9338 12.7925C12.0617 13.6958 11.5083 14.8564 11.3571 16.0997C11.2059 17.3429 11.4649 18.6013 12.0952 19.6854C12.7256 20.7694 13.693 21.6204 14.8518 22.11C11.9983 23.472 9.41607 26.3049 9.04438 30.1159C8.63178 34.348 10.765 42.4884 29.6795 49.4604C29.8229 49.5132 29.9806 49.5132 30.1241 49.4604C49.0359 42.4884 51.1682 34.348 50.7556 30.1159ZM38.1288 16.7918C38.1286 15.8981 38.3949 15.0243 38.894 14.2811C39.3932 13.5379 40.1027 12.9586 40.9328 12.6165C41.763 12.2744 42.6765 12.1848 43.5578 12.3591C44.4392 12.5335 45.2487 12.9638 45.8841 13.5958C46.5196 14.2278 46.9522 15.033 47.1275 15.9096C47.3028 16.7863 47.2127 17.6949 46.8688 18.5206C46.5248 19.3463 45.9424 20.052 45.1952 20.5484C44.4479 21.0449 43.5695 21.3097 42.6709 21.3096C42.582 21.3096 42.493 21.3096 42.4041 21.3007C42.1694 21.2627 41.9346 21.2309 41.6999 21.2034C40.6892 20.9815 39.7849 20.4235 39.1362 19.6214C38.4874 18.8194 38.133 17.8212 38.1314 16.7918H38.1288ZM29.9 16.3894C30.7038 16.3893 31.4895 16.6262 32.1579 17.0702C32.8263 17.5142 33.3473 18.1454 33.655 18.8839C33.9627 19.6225 34.0433 20.4352 33.8866 21.2193C33.7299 22.0034 33.343 22.7237 32.7747 23.2891C32.2064 23.8544 31.4823 24.2395 30.694 24.3955C29.9057 24.5515 29.0886 24.4715 28.346 24.1656C27.6034 23.8597 26.9687 23.3417 26.5221 22.677C26.0755 22.0123 25.8372 21.2308 25.8372 20.4313C25.8381 19.3598 26.2664 18.3324 27.0281 17.5746C27.7898 16.8168 28.8227 16.3906 29.9 16.3894ZM30.3944 25.7344C31.9412 25.7361 33.4242 26.348 34.5179 27.4358C35.6117 28.5237 36.2269 29.9987 36.2285 31.5372V38.7561C35.1864 39.1098 34.1202 39.3327 33.094 39.3159C30.1072 39.262 26.497 36.4981 24.1077 34.6691L23.5741 34.2596V31.5372C23.5758 29.9987 24.191 28.5237 25.2847 27.4358C26.3785 26.348 27.8615 25.7361 29.4083 25.7344H30.3944ZM12.5834 16.7918C12.5831 15.9397 12.8251 15.1048 13.2814 14.3836C13.7378 13.6623 14.3898 13.0841 15.1624 12.7157C15.935 12.3473 16.7965 12.2037 17.6476 12.3014C18.4987 12.3992 19.3047 12.7344 19.9725 13.2682C20.6403 13.8021 21.1427 14.5129 21.4217 15.3186C21.7008 16.1243 21.7451 16.992 21.5495 17.8217C21.3539 18.6514 20.9264 19.4091 20.3164 20.0075C19.7064 20.6059 18.9387 21.0205 18.1019 21.2034C17.8672 21.2309 17.6324 21.2627 17.3977 21.3007C17.3087 21.306 17.2198 21.3096 17.1264 21.3096C15.9222 21.3082 14.7676 20.8318 13.9159 19.9849C13.0643 19.138 12.5851 17.9897 12.5834 16.7918ZM29.9 48.1957C11.3154 41.2873 10.0047 33.3415 10.3071 30.238C10.725 25.952 14.3476 23.0846 17.5533 22.554C17.8108 22.5354 18.0669 22.5 18.3198 22.4478C20.7206 22.1825 23.1215 22.493 25.4717 23.38C25.8776 23.98 26.4019 24.4915 27.0127 24.8836C25.6344 25.3751 24.4421 26.2777 23.5987 27.4682C22.7552 28.6587 22.3016 30.0791 22.2999 31.5355V33.6077C21.7409 33.481 21.1564 33.5263 20.6238 33.7376C20.0913 33.949 19.636 34.3164 19.3184 34.7911C18.9534 35.3133 18.7791 35.9441 18.8244 36.5785C18.8697 37.2129 19.1319 37.8127 19.5673 38.2785C21.0941 39.92 24.4811 42.966 30.0094 44.9277C31.0307 45.2876 32.1066 45.4703 33.1901 45.4681C34.1525 45.4683 35.1095 45.3252 36.0293 45.0435C37.0128 44.7402 38.1048 44.3616 39.2438 43.8938C36.7541 45.3381 33.6854 46.7885 29.9 48.1957ZM47.2334 37.2003C43.6597 40.9716 38.4578 42.9766 35.6496 43.8398C33.9451 44.3631 32.1166 44.328 30.4335 43.7399C25.1578 41.8684 21.9415 38.978 20.4939 37.4197C20.0013 36.889 19.9461 36.1018 20.3827 35.4677C20.5021 35.2952 20.6554 35.1487 20.8334 35.0369C21.0113 34.9251 21.2102 34.8504 21.4181 34.8173C21.6259 34.7843 21.8384 34.7935 22.0425 34.8445C22.2467 34.8955 22.4383 34.9871 22.6058 35.1139C22.8325 35.2837 23.0753 35.4677 23.334 35.6685C25.855 37.5983 29.6652 40.5152 33.0709 40.5762C38.3573 40.6744 44.1728 35.4465 44.4173 35.2218C44.4788 35.166 44.5286 35.0986 44.5639 35.0236C44.5992 34.9486 44.6193 34.8674 44.6231 34.7846C44.6268 34.7019 44.6142 34.6192 44.5858 34.5413C44.5574 34.4635 44.5139 34.3919 44.4578 34.3308C44.4016 34.2696 44.3339 34.2201 44.2584 34.1849C44.183 34.1498 44.1014 34.1298 44.0182 34.1261C43.935 34.1223 43.8519 34.1349 43.7736 34.1632C43.6953 34.1914 43.6234 34.2346 43.5619 34.2905C43.5227 34.3259 40.776 36.7891 37.4974 38.2537V31.5372C37.4957 30.0809 37.0421 28.6605 36.1987 27.47C35.3552 26.2795 34.1629 25.3769 32.7846 24.8854C33.3954 24.4933 33.9197 23.9817 34.3256 23.3818C36.6802 22.4974 39.0829 22.1816 41.4793 22.4505C41.7317 22.5018 41.9871 22.537 42.2441 22.5557C45.4506 23.0864 49.0732 25.9538 49.4903 30.2398C49.6352 31.6947 49.4218 34.218 47.2334 37.2003Z" fill="#3E6968"/>
<circle cx="30" cy="30" r="30" fill="#E0F3EF"/>
<mask id="path-3-outside-1_3800_3824" maskUnits="userSpaceOnUse" x="14" y="15" width="32" height="30" fill="black">
<rect fill="white" x="14" y="15" width="32" height="30"/>
<path d="M44.9681 29.9025C44.7014 27.1308 42.8487 25.0706 40.8001 24.08C41.6335 23.724 42.3295 23.1046 42.7832 22.3151C43.2369 21.5257 43.4236 20.609 43.3153 19.7032C43.207 18.7974 42.8094 17.9517 42.1826 17.2936C41.5557 16.6354 40.7336 16.2005 39.8401 16.0543C38.9466 15.9082 38.0302 16.0588 37.229 16.4834C36.4279 16.908 35.7854 17.5836 35.3984 18.4083C35.0114 19.2331 34.901 20.1622 35.0837 21.0558C35.2664 21.9493 35.7323 22.7588 36.4113 23.3621C35.49 23.4201 34.5787 23.5863 33.6958 23.8574C33.8497 23.2852 33.8707 22.6848 33.7572 22.103C33.6437 21.5213 33.3987 20.9736 33.0413 20.5027C32.6838 20.0318 32.2235 19.6502 31.6961 19.3876C31.1687 19.1249 30.5883 18.9883 30 18.9883C29.4117 18.9883 28.8313 19.1249 28.3039 19.3876C27.7765 19.6502 27.3162 20.0318 26.9587 20.5027C26.6013 20.9736 26.3563 21.5213 26.2428 22.103C26.1293 22.6848 26.1503 23.2852 26.3042 23.8574C25.4212 23.5866 24.5099 23.4204 23.5887 23.3621C24.266 22.7592 24.7305 21.9508 24.9123 21.0587C25.0941 20.1666 24.9834 19.2391 24.5967 18.4159C24.2101 17.5927 23.5684 16.9185 22.7686 16.4948C21.9687 16.0711 21.0538 15.9209 20.1619 16.0668C19.2699 16.2127 18.4492 16.6468 17.8233 17.3037C17.1974 17.9606 16.8002 18.8047 16.6917 19.7088C16.5832 20.613 16.7691 21.5282 17.2215 22.3166C17.6739 23.105 18.3682 23.7239 19.1999 24.08C17.1519 25.0706 15.2986 27.1308 15.0319 29.9025C14.7357 32.9804 16.2668 38.9006 29.8417 43.9712C29.9447 44.0096 30.0579 44.0096 30.1608 43.9712C43.7339 38.9006 45.2643 32.9804 44.9681 29.9025ZM35.9058 20.2123C35.9057 19.5622 36.0968 18.9268 36.455 18.3863C36.8133 17.8457 37.3225 17.4244 37.9183 17.1756C38.5141 16.9268 39.1697 16.8617 39.8023 16.9885C40.4348 17.1152 41.0158 17.4282 41.4719 17.8879C41.9279 18.3475 42.2385 18.9331 42.3642 19.5707C42.49 20.2082 42.4254 20.869 42.1785 21.4695C41.9317 22.07 41.5137 22.5833 40.9774 22.9443C40.4411 23.3054 39.8106 23.498 39.1657 23.4979C39.1019 23.4979 39.0381 23.4979 38.9742 23.4914C38.8058 23.4638 38.6373 23.4406 38.4688 23.4207C37.7435 23.2593 37.0944 22.8534 36.6288 22.2701C36.1632 21.6868 35.9088 20.9609 35.9077 20.2123H35.9058ZM30 19.9196C30.5769 19.9195 31.1408 20.0918 31.6205 20.4147C32.1002 20.7376 32.4741 21.1967 32.695 21.7338C32.9158 22.2709 32.9737 22.862 32.8612 23.4322C32.7487 24.0025 32.471 24.5263 32.0632 24.9375C31.6553 25.3487 31.1356 25.6287 30.5699 25.7422C30.0041 25.8556 29.4176 25.7975 28.8847 25.575C28.3517 25.3525 27.8962 24.9758 27.5757 24.4923C27.2552 24.0089 27.0841 23.4406 27.0841 22.8591C27.0848 22.0798 27.3922 21.3326 27.9389 20.7815C28.4855 20.2304 29.2268 19.9204 30 19.9196ZM30.3548 26.7159C31.465 26.7171 32.5293 27.1622 33.3143 27.9533C34.0993 28.7445 34.5408 29.8173 34.542 30.9362V36.1862C33.794 36.4435 33.0289 36.6056 32.2924 36.5934C30.1487 36.5541 27.5576 34.5441 25.8428 33.2139L25.4599 32.916V30.9362C25.4611 29.8173 25.9026 28.7445 26.6876 27.9533C27.4726 27.1622 28.5369 26.7171 29.6471 26.7159H30.3548ZM17.5719 20.2123C17.5716 19.5925 17.7453 18.9853 18.0728 18.4608C18.4003 17.9362 18.8683 17.5157 19.4228 17.2478C19.9772 16.9799 20.5956 16.8754 21.2064 16.9465C21.8173 17.0176 22.3957 17.2614 22.875 17.6496C23.3543 18.0379 23.7149 18.5548 23.9151 19.1408C24.1154 19.7268 24.1472 20.3579 24.0068 20.9612C23.8664 21.5646 23.5596 22.1157 23.1218 22.5509C22.684 22.9861 22.133 23.2876 21.5325 23.4207C21.364 23.4406 21.1955 23.4638 21.027 23.4914C20.9632 23.4953 20.8994 23.4979 20.8324 23.4979C19.9681 23.4969 19.1394 23.1504 18.5282 22.5344C17.917 21.9185 17.573 21.0834 17.5719 20.2123ZM30 43.0514C16.6618 38.0271 15.7211 32.2484 15.9381 29.9913C16.238 26.8742 18.838 24.7888 21.1387 24.4029C21.3236 24.3894 21.5073 24.3636 21.6888 24.3257C23.4119 24.1327 25.1351 24.3585 26.8218 25.0037C27.1131 25.44 27.4894 25.812 27.9278 26.0972C26.9385 26.4546 26.0829 27.1111 25.4775 27.9769C24.8722 28.8427 24.5466 29.8757 24.5454 30.9349V32.442C24.1442 32.3498 23.7247 32.3827 23.3425 32.5365C22.9603 32.6902 22.6335 32.9574 22.4055 33.3026C22.1436 33.6824 22.0185 34.1411 22.051 34.6025C22.0835 35.0639 22.2717 35.5002 22.5842 35.8389C23.68 37.0327 26.1109 39.248 30.0785 40.6747C30.8115 40.9364 31.5837 41.0693 32.3613 41.0677C33.052 41.0678 33.7389 40.9638 34.399 40.7589C35.1049 40.5383 35.8886 40.263 36.7061 39.9227C34.9192 40.9731 32.7168 42.028 30 43.0514ZM42.4403 35.0548C39.8754 37.7975 36.142 39.2557 34.1265 39.8835C32.9032 40.264 31.5909 40.2386 30.3829 39.8108C26.5965 38.4497 24.2882 36.3477 23.2492 35.2143C22.8956 34.8284 22.8561 34.2559 23.1694 33.7947C23.2551 33.6693 23.3651 33.5627 23.4928 33.4814C23.6206 33.4001 23.7633 33.3458 23.9125 33.3217C24.0617 33.2976 24.2141 33.3044 24.3607 33.3414C24.5072 33.3785 24.6447 33.4452 24.7649 33.5374C24.9276 33.6609 25.1019 33.7947 25.2876 33.9407C27.0969 35.3442 29.8315 37.4656 32.2758 37.51C36.0698 37.5814 40.2436 33.7793 40.4191 33.6159C40.4632 33.5752 40.499 33.5263 40.5243 33.4717C40.5497 33.4171 40.5641 33.3581 40.5668 33.2979C40.5695 33.2377 40.5604 33.1776 40.54 33.121C40.5197 33.0643 40.4885 33.0123 40.4481 32.9678C40.4078 32.9233 40.3592 32.8873 40.3051 32.8618C40.251 32.8362 40.1924 32.8217 40.1327 32.819C40.073 32.8163 40.0133 32.8254 39.9571 32.8459C39.9009 32.8664 39.8493 32.8979 39.8052 32.9386C39.7771 32.9643 37.8057 34.7557 35.4527 35.8209V30.9362C35.4514 29.877 35.1259 28.844 34.5206 27.9782C33.9152 27.1124 33.0595 26.4559 32.0703 26.0984C32.5087 25.8133 32.885 25.4413 33.1763 25.005C34.8662 24.3617 36.5906 24.1321 38.3105 24.3276C38.4917 24.365 38.675 24.3905 38.8594 24.4042C41.1607 24.7901 43.7607 26.8755 44.06 29.9926C44.164 31.0507 44.0109 32.8858 42.4403 35.0548Z"/>
</mask>
<path d="M44.9681 29.9025C44.7014 27.1308 42.8487 25.0706 40.8001 24.08C41.6335 23.724 42.3295 23.1046 42.7832 22.3151C43.2369 21.5257 43.4236 20.609 43.3153 19.7032C43.207 18.7974 42.8094 17.9517 42.1826 17.2936C41.5557 16.6354 40.7336 16.2005 39.8401 16.0543C38.9466 15.9082 38.0302 16.0588 37.229 16.4834C36.4279 16.908 35.7854 17.5836 35.3984 18.4083C35.0114 19.2331 34.901 20.1622 35.0837 21.0558C35.2664 21.9493 35.7323 22.7588 36.4113 23.3621C35.49 23.4201 34.5787 23.5863 33.6958 23.8574C33.8497 23.2852 33.8707 22.6848 33.7572 22.103C33.6437 21.5213 33.3987 20.9736 33.0413 20.5027C32.6838 20.0318 32.2235 19.6502 31.6961 19.3876C31.1687 19.1249 30.5883 18.9883 30 18.9883C29.4117 18.9883 28.8313 19.1249 28.3039 19.3876C27.7765 19.6502 27.3162 20.0318 26.9587 20.5027C26.6013 20.9736 26.3563 21.5213 26.2428 22.103C26.1293 22.6848 26.1503 23.2852 26.3042 23.8574C25.4212 23.5866 24.5099 23.4204 23.5887 23.3621C24.266 22.7592 24.7305 21.9508 24.9123 21.0587C25.0941 20.1666 24.9834 19.2391 24.5967 18.4159C24.2101 17.5927 23.5684 16.9185 22.7686 16.4948C21.9687 16.0711 21.0538 15.9209 20.1619 16.0668C19.2699 16.2127 18.4492 16.6468 17.8233 17.3037C17.1974 17.9606 16.8002 18.8047 16.6917 19.7088C16.5832 20.613 16.7691 21.5282 17.2215 22.3166C17.6739 23.105 18.3682 23.7239 19.1999 24.08C17.1519 25.0706 15.2986 27.1308 15.0319 29.9025C14.7357 32.9804 16.2668 38.9006 29.8417 43.9712C29.9447 44.0096 30.0579 44.0096 30.1608 43.9712C43.7339 38.9006 45.2643 32.9804 44.9681 29.9025ZM35.9058 20.2123C35.9057 19.5622 36.0968 18.9268 36.455 18.3863C36.8133 17.8457 37.3225 17.4244 37.9183 17.1756C38.5141 16.9268 39.1697 16.8617 39.8023 16.9885C40.4348 17.1152 41.0158 17.4282 41.4719 17.8879C41.9279 18.3475 42.2385 18.9331 42.3642 19.5707C42.49 20.2082 42.4254 20.869 42.1785 21.4695C41.9317 22.07 41.5137 22.5833 40.9774 22.9443C40.4411 23.3054 39.8106 23.498 39.1657 23.4979C39.1019 23.4979 39.0381 23.4979 38.9742 23.4914C38.8058 23.4638 38.6373 23.4406 38.4688 23.4207C37.7435 23.2593 37.0944 22.8534 36.6288 22.2701C36.1632 21.6868 35.9088 20.9609 35.9077 20.2123H35.9058ZM30 19.9196C30.5769 19.9195 31.1408 20.0918 31.6205 20.4147C32.1002 20.7376 32.4741 21.1967 32.695 21.7338C32.9158 22.2709 32.9737 22.862 32.8612 23.4322C32.7487 24.0025 32.471 24.5263 32.0632 24.9375C31.6553 25.3487 31.1356 25.6287 30.5699 25.7422C30.0041 25.8556 29.4176 25.7975 28.8847 25.575C28.3517 25.3525 27.8962 24.9758 27.5757 24.4923C27.2552 24.0089 27.0841 23.4406 27.0841 22.8591C27.0848 22.0798 27.3922 21.3326 27.9389 20.7815C28.4855 20.2304 29.2268 19.9204 30 19.9196ZM30.3548 26.7159C31.465 26.7171 32.5293 27.1622 33.3143 27.9533C34.0993 28.7445 34.5408 29.8173 34.542 30.9362V36.1862C33.794 36.4435 33.0289 36.6056 32.2924 36.5934C30.1487 36.5541 27.5576 34.5441 25.8428 33.2139L25.4599 32.916V30.9362C25.4611 29.8173 25.9026 28.7445 26.6876 27.9533C27.4726 27.1622 28.5369 26.7171 29.6471 26.7159H30.3548ZM17.5719 20.2123C17.5716 19.5925 17.7453 18.9853 18.0728 18.4608C18.4003 17.9362 18.8683 17.5157 19.4228 17.2478C19.9772 16.9799 20.5956 16.8754 21.2064 16.9465C21.8173 17.0176 22.3957 17.2614 22.875 17.6496C23.3543 18.0379 23.7149 18.5548 23.9151 19.1408C24.1154 19.7268 24.1472 20.3579 24.0068 20.9612C23.8664 21.5646 23.5596 22.1157 23.1218 22.5509C22.684 22.9861 22.133 23.2876 21.5325 23.4207C21.364 23.4406 21.1955 23.4638 21.027 23.4914C20.9632 23.4953 20.8994 23.4979 20.8324 23.4979C19.9681 23.4969 19.1394 23.1504 18.5282 22.5344C17.917 21.9185 17.573 21.0834 17.5719 20.2123ZM30 43.0514C16.6618 38.0271 15.7211 32.2484 15.9381 29.9913C16.238 26.8742 18.838 24.7888 21.1387 24.4029C21.3236 24.3894 21.5073 24.3636 21.6888 24.3257C23.4119 24.1327 25.1351 24.3585 26.8218 25.0037C27.1131 25.44 27.4894 25.812 27.9278 26.0972C26.9385 26.4546 26.0829 27.1111 25.4775 27.9769C24.8722 28.8427 24.5466 29.8757 24.5454 30.9349V32.442C24.1442 32.3498 23.7247 32.3827 23.3425 32.5365C22.9603 32.6902 22.6335 32.9574 22.4055 33.3026C22.1436 33.6824 22.0185 34.1411 22.051 34.6025C22.0835 35.0639 22.2717 35.5002 22.5842 35.8389C23.68 37.0327 26.1109 39.248 30.0785 40.6747C30.8115 40.9364 31.5837 41.0693 32.3613 41.0677C33.052 41.0678 33.7389 40.9638 34.399 40.7589C35.1049 40.5383 35.8886 40.263 36.7061 39.9227C34.9192 40.9731 32.7168 42.028 30 43.0514ZM42.4403 35.0548C39.8754 37.7975 36.142 39.2557 34.1265 39.8835C32.9032 40.264 31.5909 40.2386 30.3829 39.8108C26.5965 38.4497 24.2882 36.3477 23.2492 35.2143C22.8956 34.8284 22.8561 34.2559 23.1694 33.7947C23.2551 33.6693 23.3651 33.5627 23.4928 33.4814C23.6206 33.4001 23.7633 33.3458 23.9125 33.3217C24.0617 33.2976 24.2141 33.3044 24.3607 33.3414C24.5072 33.3785 24.6447 33.4452 24.7649 33.5374C24.9276 33.6609 25.1019 33.7947 25.2876 33.9407C27.0969 35.3442 29.8315 37.4656 32.2758 37.51C36.0698 37.5814 40.2436 33.7793 40.4191 33.6159C40.4632 33.5752 40.499 33.5263 40.5243 33.4717C40.5497 33.4171 40.5641 33.3581 40.5668 33.2979C40.5695 33.2377 40.5604 33.1776 40.54 33.121C40.5197 33.0643 40.4885 33.0123 40.4481 32.9678C40.4078 32.9233 40.3592 32.8873 40.3051 32.8618C40.251 32.8362 40.1924 32.8217 40.1327 32.819C40.073 32.8163 40.0133 32.8254 39.9571 32.8459C39.9009 32.8664 39.8493 32.8979 39.8052 32.9386C39.7771 32.9643 37.8057 34.7557 35.4527 35.8209V30.9362C35.4514 29.877 35.1259 28.844 34.5206 27.9782C33.9152 27.1124 33.0595 26.4559 32.0703 26.0984C32.5087 25.8133 32.885 25.4413 33.1763 25.005C34.8662 24.3617 36.5906 24.1321 38.3105 24.3276C38.4917 24.365 38.675 24.3905 38.8594 24.4042C41.1607 24.7901 43.7607 26.8755 44.06 29.9926C44.164 31.0507 44.0109 32.8858 42.4403 35.0548Z" fill="#285857"/>
<path d="M44.9681 29.9025C44.7014 27.1308 42.8487 25.0706 40.8001 24.08C41.6335 23.724 42.3295 23.1046 42.7832 22.3151C43.2369 21.5257 43.4236 20.609 43.3153 19.7032C43.207 18.7974 42.8094 17.9517 42.1826 17.2936C41.5557 16.6354 40.7336 16.2005 39.8401 16.0543C38.9466 15.9082 38.0302 16.0588 37.229 16.4834C36.4279 16.908 35.7854 17.5836 35.3984 18.4083C35.0114 19.2331 34.901 20.1622 35.0837 21.0558C35.2664 21.9493 35.7323 22.7588 36.4113 23.3621C35.49 23.4201 34.5787 23.5863 33.6958 23.8574C33.8497 23.2852 33.8707 22.6848 33.7572 22.103C33.6437 21.5213 33.3987 20.9736 33.0413 20.5027C32.6838 20.0318 32.2235 19.6502 31.6961 19.3876C31.1687 19.1249 30.5883 18.9883 30 18.9883C29.4117 18.9883 28.8313 19.1249 28.3039 19.3876C27.7765 19.6502 27.3162 20.0318 26.9587 20.5027C26.6013 20.9736 26.3563 21.5213 26.2428 22.103C26.1293 22.6848 26.1503 23.2852 26.3042 23.8574C25.4212 23.5866 24.5099 23.4204 23.5887 23.3621C24.266 22.7592 24.7305 21.9508 24.9123 21.0587C25.0941 20.1666 24.9834 19.2391 24.5967 18.4159C24.2101 17.5927 23.5684 16.9185 22.7686 16.4948C21.9687 16.0711 21.0538 15.9209 20.1619 16.0668C19.2699 16.2127 18.4492 16.6468 17.8233 17.3037C17.1974 17.9606 16.8002 18.8047 16.6917 19.7088C16.5832 20.613 16.7691 21.5282 17.2215 22.3166C17.6739 23.105 18.3682 23.7239 19.1999 24.08C17.1519 25.0706 15.2986 27.1308 15.0319 29.9025C14.7357 32.9804 16.2668 38.9006 29.8417 43.9712C29.9447 44.0096 30.0579 44.0096 30.1608 43.9712C43.7339 38.9006 45.2643 32.9804 44.9681 29.9025ZM35.9058 20.2123C35.9057 19.5622 36.0968 18.9268 36.455 18.3863C36.8133 17.8457 37.3225 17.4244 37.9183 17.1756C38.5141 16.9268 39.1697 16.8617 39.8023 16.9885C40.4348 17.1152 41.0158 17.4282 41.4719 17.8879C41.9279 18.3475 42.2385 18.9331 42.3642 19.5707C42.49 20.2082 42.4254 20.869 42.1785 21.4695C41.9317 22.07 41.5137 22.5833 40.9774 22.9443C40.4411 23.3054 39.8106 23.498 39.1657 23.4979C39.1019 23.4979 39.0381 23.4979 38.9742 23.4914C38.8058 23.4638 38.6373 23.4406 38.4688 23.4207C37.7435 23.2593 37.0944 22.8534 36.6288 22.2701C36.1632 21.6868 35.9088 20.9609 35.9077 20.2123H35.9058ZM30 19.9196C30.5769 19.9195 31.1408 20.0918 31.6205 20.4147C32.1002 20.7376 32.4741 21.1967 32.695 21.7338C32.9158 22.2709 32.9737 22.862 32.8612 23.4322C32.7487 24.0025 32.471 24.5263 32.0632 24.9375C31.6553 25.3487 31.1356 25.6287 30.5699 25.7422C30.0041 25.8556 29.4176 25.7975 28.8847 25.575C28.3517 25.3525 27.8962 24.9758 27.5757 24.4923C27.2552 24.0089 27.0841 23.4406 27.0841 22.8591C27.0848 22.0798 27.3922 21.3326 27.9389 20.7815C28.4855 20.2304 29.2268 19.9204 30 19.9196ZM30.3548 26.7159C31.465 26.7171 32.5293 27.1622 33.3143 27.9533C34.0993 28.7445 34.5408 29.8173 34.542 30.9362V36.1862C33.794 36.4435 33.0289 36.6056 32.2924 36.5934C30.1487 36.5541 27.5576 34.5441 25.8428 33.2139L25.4599 32.916V30.9362C25.4611 29.8173 25.9026 28.7445 26.6876 27.9533C27.4726 27.1622 28.5369 26.7171 29.6471 26.7159H30.3548ZM17.5719 20.2123C17.5716 19.5925 17.7453 18.9853 18.0728 18.4608C18.4003 17.9362 18.8683 17.5157 19.4228 17.2478C19.9772 16.9799 20.5956 16.8754 21.2064 16.9465C21.8173 17.0176 22.3957 17.2614 22.875 17.6496C23.3543 18.0379 23.7149 18.5548 23.9151 19.1408C24.1154 19.7268 24.1472 20.3579 24.0068 20.9612C23.8664 21.5646 23.5596 22.1157 23.1218 22.5509C22.684 22.9861 22.133 23.2876 21.5325 23.4207C21.364 23.4406 21.1955 23.4638 21.027 23.4914C20.9632 23.4953 20.8994 23.4979 20.8324 23.4979C19.9681 23.4969 19.1394 23.1504 18.5282 22.5344C17.917 21.9185 17.573 21.0834 17.5719 20.2123ZM30 43.0514C16.6618 38.0271 15.7211 32.2484 15.9381 29.9913C16.238 26.8742 18.838 24.7888 21.1387 24.4029C21.3236 24.3894 21.5073 24.3636 21.6888 24.3257C23.4119 24.1327 25.1351 24.3585 26.8218 25.0037C27.1131 25.44 27.4894 25.812 27.9278 26.0972C26.9385 26.4546 26.0829 27.1111 25.4775 27.9769C24.8722 28.8427 24.5466 29.8757 24.5454 30.9349V32.442C24.1442 32.3498 23.7247 32.3827 23.3425 32.5365C22.9603 32.6902 22.6335 32.9574 22.4055 33.3026C22.1436 33.6824 22.0185 34.1411 22.051 34.6025C22.0835 35.0639 22.2717 35.5002 22.5842 35.8389C23.68 37.0327 26.1109 39.248 30.0785 40.6747C30.8115 40.9364 31.5837 41.0693 32.3613 41.0677C33.052 41.0678 33.7389 40.9638 34.399 40.7589C35.1049 40.5383 35.8886 40.263 36.7061 39.9227C34.9192 40.9731 32.7168 42.028 30 43.0514ZM42.4403 35.0548C39.8754 37.7975 36.142 39.2557 34.1265 39.8835C32.9032 40.264 31.5909 40.2386 30.3829 39.8108C26.5965 38.4497 24.2882 36.3477 23.2492 35.2143C22.8956 34.8284 22.8561 34.2559 23.1694 33.7947C23.2551 33.6693 23.3651 33.5627 23.4928 33.4814C23.6206 33.4001 23.7633 33.3458 23.9125 33.3217C24.0617 33.2976 24.2141 33.3044 24.3607 33.3414C24.5072 33.3785 24.6447 33.4452 24.7649 33.5374C24.9276 33.6609 25.1019 33.7947 25.2876 33.9407C27.0969 35.3442 29.8315 37.4656 32.2758 37.51C36.0698 37.5814 40.2436 33.7793 40.4191 33.6159C40.4632 33.5752 40.499 33.5263 40.5243 33.4717C40.5497 33.4171 40.5641 33.3581 40.5668 33.2979C40.5695 33.2377 40.5604 33.1776 40.54 33.121C40.5197 33.0643 40.4885 33.0123 40.4481 32.9678C40.4078 32.9233 40.3592 32.8873 40.3051 32.8618C40.251 32.8362 40.1924 32.8217 40.1327 32.819C40.073 32.8163 40.0133 32.8254 39.9571 32.8459C39.9009 32.8664 39.8493 32.8979 39.8052 32.9386C39.7771 32.9643 37.8057 34.7557 35.4527 35.8209V30.9362C35.4514 29.877 35.1259 28.844 34.5206 27.9782C33.9152 27.1124 33.0595 26.4559 32.0703 26.0984C32.5087 25.8133 32.885 25.4413 33.1763 25.005C34.8662 24.3617 36.5906 24.1321 38.3105 24.3276C38.4917 24.365 38.675 24.3905 38.8594 24.4042C41.1607 24.7901 43.7607 26.8755 44.06 29.9926C44.164 31.0507 44.0109 32.8858 42.4403 35.0548Z" stroke="#285857" stroke-width="0.4" mask="url(#path-3-outside-1_3800_3824)"/>
</g>
<defs>
<clipPath id="clip0_3800_3824">
<rect width="60" height="60" fill="white"/>
</clipPath>
</defs>
</svg>
