<svg width="60" height="60" viewBox="0 0 60 60" fill="none" xmlns="http://www.w3.org/2000/svg">
  <circle cx="30" cy="30" r="30" fill="#E0F3EF"></circle>
<path d="M44.9823 29.0662C44.9737 29.0188 44.9567 28.9714 44.9396 28.9283L40.4874 18.387C40.4874 18.387 40.4874 18.387 40.4874 18.3827C40.4704 18.3439 40.4491 18.3095 40.4277 18.275C40.4192 18.2664 40.4149 18.2535 40.4064 18.2448C40.3894 18.219 40.368 18.1974 40.351 18.1759C40.3425 18.1673 40.3339 18.1587 40.3254 18.1501C40.2998 18.1242 40.2742 18.1027 40.2444 18.0811C40.2401 18.0768 40.2358 18.0725 40.2316 18.0682C40.1975 18.0467 40.1633 18.0251 40.125 18.0079C40.1122 18.0036 40.1036 17.9993 40.0908 17.995C40.061 17.9821 40.0354 17.9734 40.0056 17.9691C39.9928 17.9648 39.98 17.9648 39.9672 17.9605C39.9245 17.9519 39.8819 17.9476 39.8392 17.9476H31.1097V15.5481C31.1097 15.1518 30.7899 14.833 30.4018 14.833C30.0095 14.833 29.6939 15.1561 29.6939 15.5481V17.9476H20.9687C20.926 17.9476 20.8834 17.9519 20.8407 17.9605C20.8279 17.9648 20.8152 17.9648 20.8024 17.9691C20.7725 17.9777 20.7427 17.9864 20.7171 17.995C20.7043 17.9993 20.6915 18.0036 20.683 18.0079C20.6446 18.0251 20.6105 18.0424 20.5763 18.0682C20.5721 18.0725 20.5678 18.0768 20.5635 18.0811C20.5337 18.1027 20.5081 18.1242 20.4825 18.1501C20.474 18.1587 20.4655 18.1673 20.4569 18.1759C20.4356 18.1974 20.4186 18.2233 20.4015 18.2448C20.393 18.2535 20.3887 18.2664 20.3802 18.275C20.3589 18.3095 20.3375 18.3439 20.3205 18.3827C20.3205 18.3827 20.3205 18.3827 20.3205 18.387L15.864 28.9283C15.847 28.9714 15.8299 29.0188 15.8214 29.0662C15.8129 29.1136 15.8086 29.161 15.8086 29.2084C15.8086 32.0817 18.1242 34.4209 20.9687 34.4209C23.8174 34.4209 26.133 32.0817 26.133 29.2084C26.133 29.161 26.1288 29.1136 26.1202 29.0662C26.1117 29.0188 26.0946 28.9714 26.0776 28.9283L22.0433 19.3821H29.6939V39.1509H26.8324C26.4401 39.1509 25.9932 39.1133 25.9932 39.5053C25.9932 39.8973 26.4443 39.8639 26.8324 39.8639H33.9755C34.3678 39.8639 34.5998 39.8973 34.5998 39.5053C34.5998 39.1133 34.3636 39.1509 33.9755 39.1509H31.114V19.3821H38.7603L34.7303 28.924C34.7133 28.9671 34.6962 29.0145 34.6877 29.0619C34.6792 29.1093 34.6749 29.1567 34.6749 29.204C34.6749 32.0774 36.9905 34.4166 39.835 34.4166C42.6837 34.4166 44.9993 32.0774 44.9993 29.204C44.9951 29.161 44.9908 29.1136 44.9823 29.0662ZM20.9687 20.4935L24.3462 28.4932H17.5912L20.9687 20.4935ZM20.9687 32.9863C19.1477 32.9863 17.6253 31.6681 17.2927 29.9235H24.6447C24.3121 31.6681 22.7896 32.9863 20.9687 32.9863ZM43.2125 28.4932H36.4575L39.835 20.4935L43.2125 28.4932ZM39.835 32.9863C38.014 32.9863 36.4916 31.6681 36.1589 29.9235H43.511C43.1784 31.6681 41.6559 32.9863 39.835 32.9863Z" fill="#285857"/>
<path d="M22.4717 43.0757L22.3677 43.6629H22.964H37.6324H38.2286L38.1247 43.0757C37.77 41.0714 35.7078 39.6505 33.3721 39.6505H27.2243C24.8886 39.6505 22.8266 41.0714 22.4717 43.0757ZM38.2902 43.667H22.3062C22.2498 43.667 22.2106 43.6489 22.1916 43.6348C22.2119 41.5228 24.3654 39.6465 27.2242 39.6465H33.3719C36.2309 39.6465 38.3843 41.5231 38.4045 43.635C38.3856 43.649 38.3465 43.667 38.2902 43.667Z" fill="#285857" stroke="#285857"/>
</svg>
