<svg width="16" height="16" viewBox="0 0 16 16" fill="none" xmlns="http://www.w3.org/2000/svg">
<path d="M5.3335 6.66602L10.6668 6.66601" stroke="#285857" stroke-linecap="square"/>
<path d="M4.6665 9.33398L5.33317 9.33398" stroke="#285857" stroke-linecap="square"/>
<path d="M10.6665 9.33398L11.3332 9.33398" stroke="#285857" stroke-linecap="square"/>
<path d="M2 11.9993V7.7432C2 7.47234 2.05502 7.20431 2.16171 6.95536L3.4805 3.87818C3.79566 3.14281 4.51874 2.66602 5.31879 2.66602H10.6812C11.4813 2.66602 12.2043 3.14281 12.5195 3.87818L13.8383 6.95536C13.945 7.20431 14 7.47234 14 7.7432V11.9993M2 11.9993V13.3993C2 13.7307 2.26863 13.9993 2.6 13.9993H4.06667C4.39804 13.9993 4.66667 13.7307 4.66667 13.3993V11.9993M2 11.9993H4.66667M14 11.9993V13.3993C14 13.7307 13.7314 13.9993 13.4 13.9993H11.9333C11.602 13.9993 11.3333 13.7307 11.3333 13.3993V11.9993M14 11.9993H11.3333M4.66667 11.9993H11.3333" stroke="#285857" stroke-linecap="square"/>
</svg>
