<svg width="16" height="17" viewBox="0 0 16 17" fill="none" xmlns="http://www.w3.org/2000/svg">
<path d="M2.66675 11.5V13.1667C2.66675 14.2712 3.56218 15.1667 4.66675 15.1667H11.3334C12.438 15.1667 13.3334 14.2712 13.3334 13.1667V11.5" stroke="#6A6C6C" stroke-linecap="square"/>
<path d="M2 9.83398V9.83398C2 8.72942 2.89543 7.83398 4 7.83398H12C13.1046 7.83398 14 8.72942 14 9.83398V9.83398" stroke="#6A6C6C" stroke-linecap="square"/>
<path d="M8 5.83398L8 7.83398" stroke="#6A6C6C" stroke-linecap="square"/>
<path d="M8.00008 5.83398C8.84166 5.83398 9.33341 5.18855 9.33341 4.08398C9.33341 2.97941 8.00008 1.83398 8.00008 1.83398C8.00008 1.83398 6.66675 2.97941 6.66675 4.08398C6.66675 5.18855 7.1585 5.83398 8.00008 5.83398Z" stroke="#6A6C6C" stroke-linecap="square"/>
<path d="M6 9.83398C6 10.9386 5.10457 11.834 4 11.834C2.89543 11.834 2 10.9386 2 9.83398" stroke="#6A6C6C" stroke-linecap="square"/>
<path d="M10 9.83398C10 10.9386 9.10457 11.834 8 11.834C6.89543 11.834 6 10.9386 6 9.83398" stroke="#6A6C6C" stroke-linecap="square"/>
<path d="M14 9.83398C14 10.9386 13.1046 11.834 12 11.834C10.8954 11.834 10 10.9386 10 9.83398" stroke="#6A6C6C" stroke-linecap="square"/>
</svg>
